<?xml version="1.0" encoding="utf-8"?>
<!-- Generator: Adobe Illustrator 18.1.1, SVG Export Plug-In . SVG Version: 6.00 Build 0)  -->
<svg version="1.1" id="Слой_1" xmlns="http://www.w3.org/2000/svg" xmlns:xlink="http://www.w3.org/1999/xlink" x="0px" y="0px"
	 viewBox="0 0 150 72" enable-background="new 0 0 150 72" xml:space="preserve">
<g>
	<path fill="#BB4F45" d="M147.9,32.9c-2.9,0-5.8,0.1-8.7,0c-0.8,0-1.1,0.2-1,1c0.1,0.7,0.1,1.4,0,2.1c0,0.6,0.2,0.8,0.8,0.8
		c2.6,0,5.1,0,7.7,0c0.6,0,0.9,0.1,0.9,0.8c0,2.4,0,2.4-2.4,2.4c-2.1,0-4.1,0-6.2,0c-0.6,0-0.8,0.2-0.8,0.8c0,1.5,0,3,0,4.5
		c0,0.7,0.2,0.8,0.8,0.8c3,0,6,0,8.9,0c0,1.1,0,2.2,0,3.3c-4.3,0-8.6,0-12.9,0c-0.7,0-0.9-0.1-0.9-0.9c0-5.9,0-11.9,0-17.8
		c0-0.9,0.3-1,1-1c3.9,0,7.8,0,11.7,0c0.4,0,0.7-0.1,1.1-0.1C147.9,30.8,147.9,31.9,147.9,32.9z"/>
	<path fill="#BB4F45" d="M2.2,27.4c0.4,0,0.7,0,1.1,0c8.7,0,17.4,0,26.1,0c0.8,0,1.1-0.3,1.3-1c2.7-8.2,5.4-16.5,8.1-24.7
		c0.1-0.2,0-0.5,0.4-0.7c3,9.2,6,18.3,9,27.6c-0.9,0-1.6,0-2.3,0c-0.6,0-0.6-0.4-0.7-0.8c-1.9-6-3.9-12-5.8-17.9
		c0-0.1-0.1-0.3-0.2-0.5c-0.5,1-0.8,2-1.1,2.9c-1.9,5.5-3.7,11.1-5.5,16.6c-0.2,0.7-0.5,0.9-1.2,0.9c-6.7,0-13.4,0-20,0
		c-0.3,0-0.7,0-1.1,0c0.1,0.4,0.4,0.5,0.6,0.7c5.4,3.9,10.8,7.9,16.3,11.8c0.7,0.5,0.8,0.9,0.6,1.6c-2,6.3-4,12.6-6.1,18.9
		c-0.1,0.2-0.1,0.4-0.2,0.8c0.9-0.6,1.6-1.1,2.3-1.6c4.8-3.5,9.6-7,14.4-10.6c0.7-0.5,1.1-0.4,1.7,0c5.3,3.9,10.6,7.7,15.9,11.5
		c0.2,0.2,0.5,0.3,0.9,0.6c-0.8-2.5-1.5-4.8-2.2-7c-0.6-1.8-1.2-3.7-1.8-5.5c-0.2-0.6-0.2-0.8,0.5-0.8c1.9,0,2,0,2.5,1.8
		c1.9,5.9,3.8,11.7,5.7,17.6c0.1,0.3,0.3,0.6,0.2,1.1c-2.2-1.6-4.3-3.2-6.4-4.8C50,62.2,45,58.5,39.9,54.6c-0.6-0.5-1-0.5-1.6,0
		c-7.1,5.3-14.2,10.5-21.3,15.8c-0.2,0.1-0.4,0.3-0.8,0.5c0.8-2.6,1.6-5,2.4-7.4c2-6.2,4-12.4,6-18.5c0.2-0.7,0.1-1.1-0.5-1.6
		C17,38.4,9.9,33.2,2.9,28.1c-0.2-0.2-0.5-0.4-0.7-0.5C2.2,27.5,2.2,27.5,2.2,27.4z"/>
	<path fill="#BB4F45" d="M37.9,29.3c2.3,0,4.4,0.5,5.8,2.5c0.4,0.6,0.5,0.9-0.3,1.2c-0.2,0-0.3,0.1-0.5,0.2
		c-0.7,0.5-1.1,0.5-1.7-0.3c-1.1-1.5-3.8-1.9-5.5-1c-1.9,1-1.9,3.1-0.1,4.2c1,0.7,2.2,1.1,3.3,1.6c1.3,0.5,2.6,1.2,3.8,1.9
		c2.9,1.5,2.8,5.2,1.6,7.1c-1.2,1.9-3,2.8-5.2,3.1c-3.5,0.5-7-1-8.6-3.8c-0.4-0.7-0.3-1,0.4-1.2c0.5-0.2,1.1-0.6,1.6-0.6
		c0.6,0,0.6,0.9,0.9,1.3c1.5,2.1,4.3,2.9,6.6,1.8c1.3-0.6,2-1.7,2.1-3.1c0.1-1.4-0.6-2.3-1.7-3c-1-0.6-2-1-3-1.4
		c-1.3-0.5-2.5-1.2-3.7-1.9c-1.6-1-2.4-2.3-2.2-4.2c0.2-2,1.5-3.2,3.3-3.9C35.8,29.3,36.9,29.2,37.9,29.3z"/>
	<path fill="#BB4F45" d="M54.9,40.6c0,2.6,0,5.3,0,7.9c0,0.7-0.2,0.9-0.8,0.9c-2,0-2,0-2-1.9c0-4.8,0-9.7,0-14.5c0-0.7-0.1-1.1-1-1
		c-1.4,0.1-2.8,0-4.3,0c-0.5,0-1.5-1.5-1.3-2c0.1-0.2,0.4-0.1,0.5-0.1c4.7,0,9.3,0,14,0c1.1,0,0.5,0.9,0.6,1.4
		c0.1,0.5,0,0.8-0.7,0.8c-1.4,0-2.8,0-4.3,0c-0.8,0-1,0.3-1,1C55,35.5,54.9,38,54.9,40.6z"/>
	<path fill="#BB4F45" d="M119.8,39.6c0-3,0-6,0-8.9c0-0.6,0.1-0.9,0.8-0.9c3.6,0,7.2,0,10.8,0c0.6,0,0.8,0.1,0.8,0.8
		c0,2.5,0.1,2.5-2.4,2.5c-1.7,0-3.5,0-5.2,0c-0.6,0-0.8,0.2-0.8,0.8c0.1,0.8,0.1,1.6,0,2.3c0,0.6,0.2,0.8,0.8,0.8c2.1,0,4.3,0,6.4,0
		c0.8,0,1,0.2,0.9,1c0,2.3,0,2.3-2.3,2.3c-1.7,0-3.4,0-5.1,0c-0.6,0-0.8,0.2-0.8,0.8c0,2.5,0,5.1,0,7.6c0,0.7-0.2,1-0.9,0.9
		c-0.8-0.1-1.6-0.1-2.4,0c-0.6,0-0.8-0.2-0.8-0.8C119.8,45.6,119.8,42.6,119.8,39.6z"/>
	<path fill="#BB4F45" d="M116.1,39.7c0,2.9,0,5.8,0,8.6c0,1-0.3,1.2-1.2,1.1c-0.7-0.1-1.5,0-2.2,0c-0.5,0-0.7-0.1-0.7-0.7
		c0-6.1,0-12.2,0-18.3c0-0.6,0.2-0.7,0.7-0.7c1.1,0,2.4-0.3,3.2,0.2c0.7,0.5,0.2,2,0.2,3C116.2,35.2,116.1,37.4,116.1,39.7z"/>
	<path fill="#FFFFFF" d="M135,39.5c0-2.7,0-5.4,0-8c0-0.6,0.2-0.8,0.8-0.8c3.4,0,6.8,0,10.3,0c0.6,0,0.8,0.1,0.8,0.8
		c0,0.8-0.4,0.7-0.9,0.7c-2.6,0-5.2,0-7.8,0c-0.9,0-1.1,0.3-1,1.1c0.1,1.3,0,2.6,0,3.9c0,0.6,0.2,0.8,0.8,0.8c2.6,0,5.2,0,7.7,0
		c0.5,0,0.9-0.1,0.9,0.7c0,0.8-0.4,0.8-0.9,0.8c-2.5,0-5.1,0-7.6,0c-0.7,0-0.9,0.2-0.9,0.9c0,2,0,4.1,0,6.1c0,0.7,0.2,0.9,0.9,0.8
		c2.6,0,5.3,0,7.9,0c0.5,0,1-0.1,1,0.7c0,0.9-0.5,0.7-1,0.7c-3.3,0-6.6,0-9.9,0c-0.9,0-1-0.3-1-1.1C135.1,44.8,135,42.1,135,39.5z"
		/>
	<path fill="#BB4F45" d="M90.2,40.5c1.3-0.1,2.3-0.3,3.2-0.7c2-0.7,3.4-2.6,3.4-4.6c0.1-2.3-1-3.9-3.2-4.8c-0.8-0.3-1.6-0.6-2.5-0.6
		c-2.1,0-4.2,0-6.3-0.1c-0.8,0-1,0.2-0.9,1c0,5.6,0,11.1,0,16.7c0,1.9,0,1.9,1.9,1.9c0.8,0,0.9-0.3,0.9-0.9c0-2.3,0-4.5,0-6.8
		c0-0.3-0.2-0.7,0.2-0.9c0.3-0.1,0.5,0.3,0.7,0.5c2.2,2.5,4.4,5,6.6,7.5c0.2,0.2,0.4,0.6,0.8,0.6c1,0,1.9,0,3.1,0
		C95.4,46.3,92.8,43.5,90.2,40.5z M87.1,38.5c-0.5,0-0.4-0.3-0.4-0.6c0-0.9,0-1.8,0-2.7c0-0.8,0-1.7,0-2.5c0-0.4,0.1-0.6,0.6-0.6
		c1.5,0,3-0.1,4.5,0.4c1.5,0.5,2.1,1.1,2.1,2.7c0.1,1.4-0.6,2.5-1.9,3C90.4,38.6,88.8,38.4,87.1,38.5z"/>
	<path fill="#BB4F45" d="M71.2,28.9c-3.5,6.9-7,13.6-10.5,20.4c0.8,0,1.3-0.1,1.8,0c0.8,0.1,1.3-0.2,1.6-1c0.7-1.5,1.5-3,2.2-4.5
		c0.2-0.5,0.5-0.7,1.1-0.7c2.5,0,4.9,0,7.4,0c0.6,0,0.8,0.2,1.1,0.7c0.8,1.6,1.6,3.2,2.4,4.8c0.2,0.3,0.2,0.7,0.7,0.7
		c0.8,0,1.6,0,2.5,0C78.1,42.5,74.7,35.8,71.2,28.9z M74,41c-2,0-4,0-6.2,0c1.1-2.3,2.2-4.4,3.4-6.7c1.1,2.2,2.1,4.2,3.1,6.1
		C74.4,40.7,74.6,41,74,41z"/>
	<path fill="#FFFFFF" d="M120.8,39.5c0-2.6,0-5.3,0-7.9c0-0.7,0.1-0.9,0.9-0.9c2.9,0,5.8,0,8.7,0c0.5,0,0.9,0,0.9,0.7
		c0,0.7-0.4,0.7-0.9,0.7c-2.2,0-4.4,0-6.6,0c-0.7,0-0.9,0.2-0.9,0.8c0.1,1.4,0.1,2.7,0,4.1c0,0.7,0.2,0.8,0.9,0.8c2.2,0,4.3,0,6.5,0
		c0.6,0,0.7,0.1,0.7,0.7c0,0.6-0.2,0.7-0.8,0.7c-2.2,0-4.3,0-6.5,0c-0.7,0-0.9,0.2-0.9,0.8c0,2.5,0,5,0,7.5c0,1.1-0.6,0.8-1.2,0.9
		c-0.8,0.1-1-0.2-1-0.9C120.8,44.9,120.8,42.2,120.8,39.5z"/>
	<path fill="#BB4F45" d="M110.9,46.9c0-0.6-0.2-0.7-0.8-0.7c-1.8,0-3.7,0-5.5,0c-0.8,0-0.9-0.2-0.9-1c0-4.8,0-9.7,0-14.5
		c0-0.7-0.2-1-0.9-0.9c-0.8,0.1-1.6,0.1-2.4,0c-0.7,0-0.8,0.2-0.8,0.8c0,3,0,6,0,8.9c0,3,0,6,0,9.1c0,0.7,0.2,0.9,0.8,0.8
		c2.6,0,5.3,0,7.9,0C110.9,49.4,110.9,49.4,110.9,46.9z M109,48.5c-2.5,0-5.1,0-7.6,0c-0.7,0-0.8-0.2-0.8-0.9c0-2.7,0-5.4,0-8.1
		c0-2.6,0-5.3,0-7.9c0-0.9,0.4-0.9,1.1-0.9c0.6,0,1.1-0.1,1.1,0.9c-0.1,4.8,0,9.7,0,14.5c0,0.8,0.3,1,1,1c1.8-0.1,3.6,0,5.4,0
		c0.5,0,0.8,0.1,0.8,0.7C109.9,48.5,109.6,48.5,109,48.5z"/>
	<path fill="#FDFEFE" d="M115.2,39.7c0,2.7,0,5.3,0,8c0,1-0.5,0.8-1.1,0.8c-0.6,0-1.1,0.2-1.1-0.8c0-5.4,0-10.8,0-16.2
		c0-0.9,0.5-0.8,1-0.7c0.5,0,1.2-0.3,1.1,0.7C115.1,34.2,115.2,36.9,115.2,39.7z"/>
</g>
</svg>
